<?xml version="1.0" standalone="no"?>
<!DOCTYPE svg PUBLIC "-//W3C//DTD SVG 20010904//EN"
 "http://www.w3.org/TR/2001/REC-SVG-20010904/DTD/svg10.dtd">
<svg version="1.0" xmlns="http://www.w3.org/2000/svg"
 width="556.000000pt" height="556.000000pt" viewBox="0 0 556.000000 556.000000"
 preserveAspectRatio="xMidYMid meet">
<metadata>
Created by potrace 1.14, written by Peter Selinger 2001-2017
</metadata>
<g transform="translate(0.000000,556.000000) scale(0.100000,-0.100000)"
fill="#000000" stroke="none">
<path d="M2968 5495 c-2 -2 -39 -6 -83 -9 -79 -5 -137 -12 -185 -21 -14 -3
-41 -8 -60 -11 -19 -3 -53 -10 -75 -16 -22 -5 -47 -11 -55 -13 -34 -7 -150
-50 -216 -80 -152 -69 -286 -185 -343 -297 -33 -65 -37 -84 -28 -128 3 -14 11
-59 17 -100 7 -41 14 -84 17 -95 2 -11 6 -33 8 -50 3 -16 7 -41 10 -55 3 -14
8 -46 12 -71 l5 -46 -53 -26 c-30 -14 -83 -44 -119 -66 l-65 -41 -20 27 c-46
62 -88 102 -122 118 -65 31 -36 42 -303 -113 -85 -49 -157 -88 -158 -86 -10 8
57 101 116 161 84 86 105 103 200 161 43 26 87 56 99 67 34 31 52 84 48 147
-6 115 -65 164 -189 155 -84 -6 -97 -8 -167 -38 -66 -27 -159 -89 -218 -143
-156 -146 -283 -410 -317 -658 -10 -72 -18 -75 -51 -22 -46 76 -60 132 -57
220 3 73 2 80 -22 105 -46 48 -133 32 -200 -37 -55 -56 -77 -134 -69 -240 5
-67 39 -200 55 -214 3 -3 14 -22 25 -43 32 -61 110 -142 182 -189 66 -43 163
-88 188 -88 17 0 54 -91 70 -173 21 -111 13 -171 -45 -344 -35 -106 -64 -214
-76 -283 -2 -14 -7 -36 -9 -50 -18 -87 -24 -127 -30 -201 -3 -35 -8 -77 -10
-94 -6 -43 -7 -326 -1 -351 2 -12 7 -45 11 -74 4 -29 9 -62 11 -74 19 -99 24
-124 28 -141 9 -36 46 -160 52 -175 4 -8 8 -19 9 -25 24 -97 183 -452 208
-463 4 -2 7 -8 7 -14 0 -13 90 -152 101 -156 5 -2 9 -8 9 -13 0 -5 24 -40 53
-77 28 -37 59 -76 67 -87 36 -46 270 -274 325 -315 33 -25 62 -47 65 -50 14
-15 111 -80 120 -80 6 0 10 -4 10 -8 0 -5 10 -14 22 -20 13 -7 55 -30 93 -52
102 -59 296 -150 318 -150 7 0 17 -4 23 -8 5 -5 43 -19 84 -31 41 -13 86 -27
100 -32 32 -10 202 -46 260 -55 25 -3 54 -8 65 -10 109 -21 464 -21 585 0 14
2 59 10 100 16 117 18 395 94 435 118 6 4 16 7 23 8 25 4 286 136 363 184 235
146 456 344 614 550 28 36 53 66 58 68 4 2 7 10 7 18 0 8 3 14 8 14 4 0 21 23
37 51 17 28 35 56 40 62 70 82 266 547 288 682 3 17 10 51 16 78 6 26 14 64
17 85 3 20 7 48 10 62 20 107 26 459 10 595 -10 89 -46 289 -61 335 -3 10 -8
28 -10 40 -4 22 -22 80 -35 115 -5 11 -22 58 -40 105 -43 112 -102 235 -164
340 -44 76 -69 114 -140 214 -82 117 -276 321 -389 411 -21 17 -52 42 -70 57
-18 15 -35 28 -39 28 -4 0 -13 6 -20 13 -7 6 -30 23 -51 37 -43 29 -43 19 -7
225 11 66 25 147 31 180 5 33 11 69 13 80 8 41 16 91 20 116 3 21 -8 42 -47
91 -118 147 -257 250 -457 335 -100 43 -301 99 -385 107 -27 3 -61 8 -75 11
-25 6 -426 15 -432 10z m-934 -1217 c10 -57 20 -112 22 -123 2 -11 7 -36 9
-55 7 -42 10 -63 19 -110 3 -19 8 -47 10 -61 l4 -25 -190 1 c-133 0 -192 -3
-195 -11 -2 -6 4 -37 15 -68 12 -36 15 -56 8 -57 -90 -7 -185 -59 -288 -157
l-38 -36 -15 40 c-8 21 -22 53 -30 69 -8 17 -24 52 -35 79 -24 57 -25 54 73
161 l64 69 24 -36 c66 -101 240 -85 299 28 8 16 17 36 19 44 8 32 7 137 -2
179 -7 33 -6 46 4 56 15 14 190 115 199 115 4 0 15 -46 24 -102z m2260 -71
c183 -130 380 -332 522 -532 51 -71 157 -251 186 -315 42 -93 58 -129 58 -135
0 -4 7 -21 14 -38 18 -38 65 -185 72 -221 2 -14 9 -37 14 -51 5 -14 7 -25 5
-25 -2 0 -1 -10 4 -23 5 -12 11 -42 15 -67 3 -25 8 -56 11 -70 3 -14 8 -50 11
-80 2 -30 7 -68 9 -85 5 -32 5 -265 0 -350 -3 -49 -12 -126 -20 -175 -3 -14
-7 -41 -10 -60 -26 -160 -101 -388 -186 -566 -69 -143 -209 -369 -230 -369 -5
0 -28 17 -51 37 -68 58 -170 138 -177 138 -3 0 -29 21 -56 47 -92 85 -344 259
-416 285 -12 5 -16 16 -14 40 3 32 12 192 21 363 11 221 16 300 19 303 2 2 20
6 41 8 132 12 252 47 366 106 l77 40 -34 66 c-35 69 -74 139 -87 157 -89 122
-144 192 -195 244 -35 36 -62 66 -60 67 2 2 20 5 41 8 21 3 61 16 90 30 144
71 222 228 194 391 -20 115 -138 240 -253 268 -11 2 35 5 101 6 106 1 122 3
127 19 3 9 22 62 41 117 20 55 36 105 36 110 0 7 -69 10 -196 10 l-196 -1 7
45 c4 25 8 51 9 56 1 6 11 60 21 121 20 120 19 118 69 81z m-2310 -573 c-48
-17 -44 -17 -44 0 0 9 12 16 33 18 49 5 54 -3 11 -18z m-518 -316 c43 -29 55
-32 118 -32 51 0 85 6 119 22 l47 21 1 -32 c1 -58 9 -91 35 -145 60 -124 181
-202 319 -204 l55 -2 -2 -45 c-1 -45 -2 -46 -224 -265 -123 -120 -221 -223
-219 -227 6 -8 104 -57 169 -83 69 -28 158 -48 269 -60 35 -4 41 -10 43 -49 3
-68 16 -304 19 -352 2 -27 6 -107 10 -177 l7 -127 -74 4 c-82 6 -272 41 -300
56 -10 5 -18 7 -18 3 0 -3 -7 -1 -15 6 -8 7 -15 9 -15 5 0 -4 -6 -3 -12 2 -7
6 -30 16 -51 23 -22 7 -66 27 -99 46 -33 19 -64 34 -68 34 -5 0 -10 3 -12 8
-1 4 -25 24 -53 44 -66 48 -151 138 -203 215 -43 63 -110 191 -117 221 -2 9
-13 42 -24 72 -16 47 -26 81 -36 125 -2 6 -5 26 -9 45 -3 19 -8 46 -11 60 -17
83 -23 291 -11 425 4 50 8 96 9 103 0 6 5 12 11 13 119 6 190 29 233 75 38 42
53 82 55 157 1 26 3 47 4 47 2 0 24 -14 50 -32z"/>
</g>
</svg>
